<?xml version="1.0" encoding="UTF-8"?>
<svg id="Layer_2" data-name="Layer 2" xmlns="http://www.w3.org/2000/svg" viewBox="0 0 4165.88 1538.92">
  <defs>
    <style>
      .cls-1 {
        fill: #4f5670;
      }
    </style>
  </defs>
  <g id="Layer_1" data-name="Layer 1">
    <g>
      <g>
        <g>
          <path class="cls-1" d="M309.93,1153.36H6.3V0h303.64v451.84h170.35v232.25h-170.35v469.27ZM40.4,1119.28h235.43v-469.27h170.35v-164.09h-170.35V34.08H40.4v1085.2Z"/>
          <path class="cls-1" d="M878.6,1153.36h-432.41V0h384.84c65.77,0,99.33,1.38,136.94,9.92,194.19,44.94,191.83,197.45,190.94,254.86l-.08,9.08c0,100.27-3.07,164.72-45.37,214.03-21.99,27.27-47.52,43.15-71.97,54.28,35.18,13.49,59.24,28.92,83.08,56.72l.1.1c46.16,54.7,48.41,120.23,48.41,231.32,0,298.11-145.49,323.04-294.5,323.04ZM480.29,1119.28h398.31c142.47,0,260.39-21.75,260.39-288.97,0-106.07-1.79-163.58-40.32-209.29-25.04-29.19-49.21-42.37-112.39-61.32l-49.26-14.76,55.58-20.2c32.77-11.78,66.69-23.95,94.67-58.65,34.97-40.77,37.46-99.81,37.46-192.23l.1-9.6c.84-54.58,2.82-182.4-164.47-221.12-33.87-7.69-63.34-9.06-129.34-9.06h-350.74v1085.2ZM821.53,952.01h-121.68v-317.87h121.68c102.66,0,102.66,68.98,102.66,164.48s-6.91,153.39-102.66,153.39ZM733.95,917.94h87.58c58.96,0,68.56-16.73,68.56-119.32,0-109.04-5.48-130.4-68.56-130.4h-87.58v249.72ZM827.86,471.63h-128.01V198.17h120.1c83.62,0,99.49,47.22,99.49,134.36,0,81.45-6.58,139.11-91.58,139.11ZM733.95,437.56h93.91c47.82,0,57.48-17.67,57.48-105.03s-18.92-100.28-65.39-100.28h-86v205.31Z"/>
        </g>
        <g>
          <path class="cls-1" d="M1383.32,801.49l44.39-52.59c66.18,60.73,129.65,89.73,217.56,89.73s141.4-45.31,141.4-107.86v-1.82c0-58.91-31.72-91.55-164.98-120.56-145.93-31.72-213.01-78.87-213.01-183.1v-1.82c0-98.8,87.92-173.13,208.47-173.13,93.37,0,157.73,26.29,222.99,77.96l-41.68,55.3c-58.94-48.04-117.84-68.89-183.1-68.89-83.41,0-135.07,44.42-135.07,102.43v1.8c0,59.83,31.72,94.28,172.22,123.28,141.42,31.72,206.68,82.48,206.68,179.48v1.82c0,108.76-90.66,179.47-216.64,179.47-101.54,0-183.1-32.64-259.24-101.51Z"/>
          <path class="cls-1" d="M2011.45,259.41h71.61v634.52h-71.61V259.41Z"/>
          <path class="cls-1" d="M2240.78,578.48v-1.8c0-174.04,127.8-328.14,318.15-328.14,106.96,0,173.14,30.81,236.59,84.29l-46.21,54.39c-48.05-42.6-104.25-72.52-193.09-72.52-140.5,0-241.12,118.74-241.12,260.15v1.82c0,151.38,96.98,263.77,251.08,263.77,72.53,0,139.61-28.11,183.13-63.44v-157.73h-193.09v-64.36h261.96v252.89c-58.91,53.48-146.83,97-254.71,97-199.41,0-322.68-145.03-322.68-326.33Z"/>
          <path class="cls-1" d="M2979.49,259.41h67.08l399.74,508.54v-508.54h69.82v634.52h-57.12l-409.7-520.3v520.3h-69.82V259.41Z"/>
          <path class="cls-1" d="M3653.86,801.49l44.39-52.59c66.18,60.73,129.65,89.73,217.56,89.73s141.4-45.31,141.4-107.86v-1.82c0-58.91-31.72-91.55-164.98-120.56-145.93-31.72-213.01-78.87-213.01-183.1v-1.82c0-98.8,87.92-173.13,208.47-173.13,93.37,0,157.73,26.29,222.99,77.96l-41.68,55.3c-58.94-48.04-117.84-68.89-183.1-68.89-83.41,0-135.07,44.42-135.07,102.43v1.8c0,59.83,31.72,94.28,172.22,123.28,141.42,31.72,206.68,82.48,206.68,179.48v1.82c0,108.76-90.66,179.47-216.64,179.47-101.54,0-183.1-32.64-259.24-101.51Z"/>
        </g>
      </g>
      <g>
        <path class="cls-1" d="M0,1370.87h18.66v73.4h95.34v-73.4h18.64v165.21h-18.64v-74.35H18.66v74.35H0v-165.21Z"/>
        <path class="cls-1" d="M231,1453.94v-.49c0-45.55,34.2-85.43,84.49-85.43s84.02,39.43,84.02,84.97v.46c0,45.57-34.23,85.46-84.49,85.46s-84.02-39.43-84.02-84.97ZM380.16,1453.94v-.49c0-37.51-27.37-68.2-65.13-68.2s-64.67,30.21-64.67,67.74v.46c0,37.53,27.37,68.23,65.13,68.23s64.67-30.21,64.67-67.74Z"/>
        <path class="cls-1" d="M497.85,1370.87h18.87l60.19,90.14,60.19-90.14h18.87v165.21h-18.64v-133.82l-60.19,88.5h-.92l-60.19-88.27v133.59h-18.18v-165.21Z"/>
        <path class="cls-1" d="M761.62,1370.87h119.43v17h-100.77v56.4h90.14v17h-90.14v57.81h101.95v17h-120.61v-165.21Z"/>
        <path class="cls-1" d="M1108.48,1370.87h70.33c18.89,0,33.74,5.43,43.19,14.62,7.09,7.32,10.62,16.31,10.62,26.45v.46c0,21.48-13.21,32.59-26.19,38.25,19.59,5.66,35.41,17.46,35.41,39.89v.46c0,28.32-23.86,45.08-59.96,45.08h-73.4v-165.21ZM1213.72,1414.52c0-16.28-12.98-26.91-36.56-26.91h-50.28v56.89h48.85c22.66,0,37.99-9.91,37.99-29.49v-.49ZM1222.94,1489.35c0-17.95-14.87-28.34-43.91-28.34h-52.15v58.3h55.45c25.27,0,40.6-10.86,40.6-29.49v-.46Z"/>
        <path class="cls-1" d="M1396.34,1369.69h17.46l75.29,166.39h-20.07l-19.33-43.65h-89.94l-19.59,43.65h-19.12l75.29-166.39ZM1442.37,1475.65l-37.53-84.26-37.76,84.26h75.29Z"/>
        <path class="cls-1" d="M1566.44,1512.01l11.57-13.7c17.23,15.82,33.74,23.37,56.63,23.37s36.82-11.8,36.82-28.09v-.49c0-15.34-8.24-23.84-42.96-31.39-37.99-8.27-55.45-20.53-55.45-47.67v-.49c0-25.7,22.89-45.06,54.28-45.06,24.32,0,41.07,6.84,58.06,20.3l-10.86,14.39c-15.34-12.52-30.67-17.95-47.67-17.95-21.71,0-35.18,11.57-35.18,26.68v.46c0,15.59,8.27,24.55,44.85,32.1,36.82,8.27,53.81,21.48,53.81,46.72v.49c0,28.32-23.6,46.72-56.43,46.72-26.42,0-47.67-8.5-67.49-26.42Z"/>
        <path class="cls-1" d="M1787.28,1370.87h119.43v17h-100.77v56.4h90.14v17h-90.14v57.81h101.95v17h-120.61v-165.21Z"/>
        <path class="cls-1" d="M2004.35,1370.87h57.35c51.92,0,87.79,35.64,87.79,82.13v.46c0,46.52-35.87,82.62-87.79,82.62h-57.35v-165.21ZM2022.99,1388.1v130.75h38.71c41.78,0,68.46-28.09,68.46-64.9v-.49c0-36.56-26.68-65.36-68.46-65.36h-38.71Z"/>
        <path class="cls-1" d="M2366.75,1512.01l11.57-13.7c17.23,15.82,33.74,23.37,56.66,23.37s36.82-11.8,36.82-28.09v-.49c0-15.34-8.27-23.84-42.96-31.39-37.99-8.27-55.48-20.53-55.48-47.67v-.49c0-25.7,22.91-45.06,54.3-45.06,24.3,0,41.07,6.84,58.06,20.3l-10.86,14.39c-15.36-12.52-30.7-17.95-47.7-17.95-21.71,0-35.15,11.57-35.15,26.68v.46c0,15.59,8.24,24.55,44.83,32.1,36.82,8.27,53.81,21.48,53.81,46.72v.49c0,28.32-23.6,46.72-56.4,46.72-26.45,0-47.67-8.5-67.51-26.42Z"/>
        <path class="cls-1" d="M2589.25,1370.87h18.66v165.21h-18.66v-165.21Z"/>
        <path class="cls-1" d="M2707.94,1453.94v-.49c0-45.31,33.26-85.43,82.82-85.43,27.85,0,45.08,8.04,61.62,21.97l-12.06,14.16c-12.49-11.11-27.14-18.89-50.26-18.89-36.58,0-62.78,30.93-62.78,67.74v.46c0,39.43,25.24,68.69,65.36,68.69,18.89,0,36.35-7.32,47.67-16.51v-41.07h-50.26v-16.77h68.2v65.85c-15.34,13.93-38.22,25.27-66.31,25.27-51.95,0-84.02-37.76-84.02-84.97Z"/>
        <path class="cls-1" d="M2959.22,1370.87h17.46l104.1,132.41v-132.41h18.15v165.21h-14.85l-106.68-135.48v135.48h-18.18v-165.21Z"/>
        <path class="cls-1" d="M3323.51,1512.01l11.57-13.7c17.23,15.82,33.74,23.37,56.63,23.37s36.82-11.8,36.82-28.09v-.49c0-15.34-8.24-23.84-42.93-31.39-38.02-8.27-55.48-20.53-55.48-47.67v-.49c0-25.7,22.89-45.06,54.3-45.06,24.3,0,41.07,6.84,58.04,20.3l-10.86,14.39c-15.34-12.52-30.67-17.95-47.67-17.95-21.71,0-35.18,11.57-35.18,26.68v.46c0,15.59,8.27,24.55,44.85,32.1,36.82,8.27,53.81,21.48,53.81,46.72v.49c0,28.32-23.6,46.72-56.4,46.72-26.45,0-47.7-8.5-67.51-26.42Z"/>
        <path class="cls-1" d="M3544.37,1370.87h18.64v73.4h95.34v-73.4h18.66v165.21h-18.66v-74.35h-95.34v74.35h-18.64v-165.21Z"/>
        <path class="cls-1" d="M3775.35,1453.94v-.49c0-45.55,34.23-85.43,84.49-85.43s84.02,39.43,84.02,84.97v.46c0,45.57-34.23,85.46-84.49,85.46s-84.02-39.43-84.02-84.97ZM3924.51,1453.94v-.49c0-37.51-27.37-68.2-65.13-68.2s-64.67,30.21-64.67,67.74v.46c0,37.53,27.37,68.23,65.13,68.23s64.67-30.21,64.67-67.74Z"/>
        <path class="cls-1" d="M4042.22,1370.87h61.83c37.3,0,61.83,19.82,61.83,52.38v.49c0,35.64-29.72,54.05-64.9,54.05h-40.12v58.3h-18.64v-165.21ZM4101.7,1460.78c27.37,0,45.31-14.62,45.31-36.33v-.49c0-23.6-17.72-35.87-44.37-35.87h-41.78v72.68h40.83Z"/>
      </g>
    </g>
  </g>
</svg>